0
SECTION
2
HEADER
9
$INSUNITS
70
4
9
$ACADVER
1
AC1014
9
$HANDSEED
5
FFFF
0
ENDSEC
0
SECTION
2
TABLES
0
TABLE
2
VPORT
5
8
100
AcDbSymbolTable
0
ENDTAB
0
TABLE
2
LTYPE
5
5
100
AcDbSymbolTable
0
LTYPE
5
14
100
AcDbSymbolTableRecord
100
AcDbLinetypeTableRecord
2
BYBLOCK
70
0
0
LTYPE
5
15
100
AcDbSymbolTableRecord
100
AcDbLinetypeTableRecord
2
BYLAYER
70
0
0
ENDTAB
0
TABLE
2
LAYER
5
2
100
AcDbSymbolTable
70
2
0
LAYER
5
50
100
AcDbSymbolTableRecord
100
AcDbLayerTableRecord
2
0
70
0
6
CONTINUOUS
0
ENDTAB
0
TABLE
2
STYLE
5
3
100
AcDbSymbolTable
70
1
0
STYLE
5
11
100
AcDbSymbolTableRecord
100
AcDbTextStyleTableRecord
2
STANDARD
70
0
0
ENDTAB
0
TABLE
2
VIEW
5
6
100
AcDbSymbolTable
70
0
0
ENDTAB
0
TABLE
2
UCS
5
7
100
AcDbSymbolTable
70
0
0
ENDTAB
0
TABLE
2
APPID
5
9
100
AcDbSymbolTable
70
2
0
APPID
5
12
100
AcDbSymbolTableRecord
100
AcDbRegAppTableRecord
2
ACAD
70
0
0
ENDTAB
0
TABLE
2
DIMSTYLE
5
A
100
AcDbSymbolTable
70
1
0
ENDTAB
0
TABLE
2
BLOCK_RECORD
5
1
100
AcDbSymbolTable
70
1
0
BLOCK_RECORD
5
1F
100
AcDbSymbolTableRecord
100
AcDbBlockTableRecord
2
*MODEL_SPACE
0
BLOCK_RECORD
5
1B
100
AcDbSymbolTableRecord
100
AcDbBlockTableRecord
2
*PAPER_SPACE
0
ENDTAB
0
ENDSEC
0
SECTION
2
BLOCKS
0
BLOCK
5
20
100
AcDbEntity
100
AcDbBlockBegin
2
*MODEL_SPACE
0
ENDBLK
5
21
100
AcDbEntity
100
AcDbBlockEnd
0
BLOCK
5
1C
100
AcDbEntity
100
AcDbBlockBegin
2
*PAPER_SPACE
0
ENDBLK
5
1D
100
AcDbEntity
100
AcDbBlockEnd
0
ENDSEC
0
SECTION
2
ENTITIES
0
LWPOLYLINE
5
100
100
AcDbEntity
8
0
100
AcDbPolyline
90
4
70
1
43
0.0
10
-95.999999999999972
20
-83.999999999999986
10
-95.999999999999972
20
83.999999999999986
10
-83.999999999999986
20
83.999999999999986
10
-83.999999999999986
20
-83.999999999999986
0
LWPOLYLINE
5
101
100
AcDbEntity
8
0
100
AcDbPolyline
90
4
70
1
43
0.0
10
-95.999999999999972
20
-95.999999999999972
10
-95.999999999999972
20
-83.999999999999986
10
-83.999999999999986
20
-83.999999999999986
10
-83.999999999999986
20
-95.999999999999972
0
LWPOLYLINE
5
102
100
AcDbEntity
8
0
100
AcDbPolyline
90
4
70
1
43
0.0
10
83.999999999999986
20
-83.999999999999986
10
83.999999999999986
20
-95.999999999999972
10
-83.999999999999986
20
-95.999999999999972
10
-83.999999999999986
20
-83.999999999999986
0
LWPOLYLINE
5
103
100
AcDbEntity
8
0
100
AcDbPolyline
90
4
70
1
43
0.0
10
-63.485281374238554
20
8.4852813742385642
10
-55
20
0
10
-63.485281374238582
20
-8.4852813742385749
10
-71.970562748477136
20
-1.1102230246251565e-15
0
LWPOLYLINE
5
104
100
AcDbEntity
8
0
100
AcDbPolyline
90
4
70
1
43
0.0
10
83.999999999999986
20
-95.999999999999972
10
83.999999999999986
20
-83.999999999999986
10
95.999999999999972
20
-83.999999999999986
10
95.999999999999972
20
-95.999999999999972
0
LWPOLYLINE
5
105
100
AcDbEntity
8
0
100
AcDbPolyline
90
4
70
1
43
0.0
10
95.999999999999972
20
83.999999999999986
10
95.999999999999972
20
-83.999999999999986
10
83.999999999999986
20
-83.999999999999986
10
83.999999999999986
20
83.999999999999986
0
LWPOLYLINE
5
106
100
AcDbEntity
8
0
100
AcDbPolyline
90
4
70
1
43
0.0
10
63.485281374238554
20
8.4852813742385642
10
71.970562748477136
20
0
10
63.485281374238582
20
-8.4852813742385749
10
55
20
0
0
LWPOLYLINE
5
107
100
AcDbEntity
8
0
100
AcDbPolyline
90
4
70
1
43
0.0
10
83.999999999999986
20
95.999999999999972
10
83.999999999999986
20
83.999999999999986
10
-83.999999999999986
20
83.999999999999986
10
-83.999999999999986
20
95.999999999999972
0
LWPOLYLINE
5
108
100
AcDbEntity
8
0
100
AcDbPolyline
90
4
70
1
43
0.0
10
54.999999999999993
20
127.27922061357857
10
63.485281374238582
20
135.76450198781714
10
71.970562748477136
20
127.27922061357857
10
63.485281374238546
20
118.79393923934001
0
LWPOLYLINE
5
109
100
AcDbEntity
8
0
100
AcDbPolyline
90
4
70
1
43
0.0
10
-63.485281374238582
20
135.76450198781714
10
-55
20
127.27922061357857
10
-63.485281374238554
20
118.79393923934001
10
-71.970562748477136
20
127.27922061357857
0
LWPOLYLINE
5
110
100
AcDbEntity
8
0
100
AcDbPolyline
90
4
70
1
43
0.0
10
-83.999999999999986
20
95.999999999999972
10
-83.999999999999986
20
83.999999999999986
10
-95.999999999999972
20
83.999999999999986
10
-95.999999999999972
20
95.999999999999972
0
LWPOLYLINE
5
111
100
AcDbEntity
8
0
100
AcDbPolyline
90
4
70
1
43
0.0
10
-83.999999999999986
20
264
10
-83.999999999999986
20
95.999999999999972
10
-95.999999999999957
20
95.999999999999972
10
-95.999999999999957
20
264
0
LWPOLYLINE
5
112
100
AcDbEntity
8
0
100
AcDbPolyline
90
4
70
1
43
0.0
10
95.999999999999972
20
95.999999999999972
10
95.999999999999972
20
83.999999999999986
10
83.999999999999986
20
83.999999999999986
10
83.999999999999986
20
95.999999999999972
0
LWPOLYLINE
5
113
100
AcDbEntity
8
0
100
AcDbPolyline
90
4
70
1
43
0.0
10
95.999999999999972
20
95.999999999999972
10
83.999999999999986
20
95.999999999999972
10
83.999999999999986
20
264
10
95.999999999999972
20
264
0
LWPOLYLINE
5
114
100
AcDbEntity
8
0
100
AcDbPolyline
90
4
70
1
43
0.0
10
83.999999999999986
20
264
10
83.999999999999986
20
275.99999999999994
10
95.999999999999972
20
275.99999999999994
10
95.999999999999972
20
264
0
LWPOLYLINE
5
115
100
AcDbEntity
8
0
100
AcDbPolyline
90
4
70
1
43
0.0
10
55
20
254.55844122715715
10
63.485281374238568
20
263.04372260139576
10
71.970562748477121
20
254.55844122715715
10
63.485281374238554
20
246.07315985291854
0
LWPOLYLINE
5
116
100
AcDbEntity
8
0
100
AcDbPolyline
90
4
70
1
43
0.0
10
83.999999999999986
20
264
10
-83.999999999999986
20
264
10
-83.999999999999986
20
275.99999999999994
10
83.999999999999986
20
275.99999999999994
0
LWPOLYLINE
5
117
100
AcDbEntity
8
0
100
AcDbPolyline
90
4
70
1
43
0.0
10
-55
20
254.55844122715715
10
-63.485281374238554
20
246.07315985291854
10
-71.970562748477136
20
254.55844122715715
10
-63.485281374238582
20
263.04372260139576
0
LWPOLYLINE
5
118
100
AcDbEntity
8
0
100
AcDbPolyline
90
4
70
1
43
0.0
10
-84
20
275.99999999999994
10
-84
20
264
10
-95.999999999999957
20
264
10
-95.999999999999957
20
275.99999999999994
0
LINE
5
119
100
AcDbEntity
8
0
100
AcDbLine
10
-55
20
127.27922061357857
30
0
11
54.999999999999993
21
127.27922061357857
31
0
0
LINE
5
120
100
AcDbEntity
8
0
100
AcDbLine
10
-63.485281374238554
20
8.4852813742385642
30
0
11
-63.485281374238554
21
118.79393923934001
31
0
0
LINE
5
121
100
AcDbEntity
8
0
100
AcDbLine
10
-63.485281374238582
20
135.76450198781714
30
0
11
-63.485281374238554
21
246.07315985291854
31
0
0
LINE
5
122
100
AcDbEntity
8
0
100
AcDbLine
10
63.485281374238554
20
246.07315985291854
30
0
11
63.485281374238582
21
135.76450198781714
31
0
0
LINE
5
123
100
AcDbEntity
8
0
100
AcDbLine
10
-55
20
254.55844122715715
30
0
11
55
21
254.55844122715715
31
0
0
LINE
5
124
100
AcDbEntity
8
0
100
AcDbLine
10
63.485281374238554
20
8.4852813742385642
30
0
11
63.485281374238546
21
118.79393923934001
31
0
0
LINE
5
125
100
AcDbEntity
8
0
100
AcDbLine
10
-83.999999999999986
20
180
30
0
11
83.999999999999986
21
180
31
0
0
LINE
5
126
100
AcDbEntity
8
0
100
AcDbLine
10
-83.999999999999986
20
0
30
0
11
83.999999999999986
21
0
31
0
0
ENDSEC
0
SECTION
2
OBJECTS
0
DICTIONARY
5
C
100
AcDbDictionary
3
ACAD_GROUP
350
D
3
ACAD_MLINESTYLE
350
17
0
DICTIONARY
5
D
100
AcDbDictionary
0
DICTIONARY
5
1A
330
C
100
AcDbDictionary
0
DICTIONARY
5
17
100
AcDbDictionary
0
ENDSEC
0
EOF
